# xmcd
#
# Track frame offsets:
#	183
#	12660
#	26240
#	40340
#	53203
#	69723
#	88760
#	101010
#	119145
#	131685
#	146160
#	159560
#	173448
#	185685
#
# Disc length: 2676 seconds
#
# Revision: 0
# Processed by: cddbd v1.5.1PL0 Copyright (c) Steve Scherf et al.
# Submitted via: dBpowerAMP V4.0
#
DISCID=d30a720e
DTITLE=Otis Redding - Golden Age
DYEAR=1992
DGENRE=
TTITLE0=Your one and only man
TTITLE1=Day tripper
TTITLE2=Your mini skirt
TTITLE3=Have mercy on me
TTITLE4=FA-FA-FA-FA-FA (Sad song)
TTITLE5=Try a little tenderness
TTITLE6=Don't bother my baby
TTITLE7=Good to me
TTITLE8=Keep your arms about me
TTITLE9=Let me make it up
TTITLE10=Shake
TTITLE11=Satisfaction
TTITLE12=Bring back my love
TTITLE13=I've been loving you too long
EXTD=
EXTT0=
EXTT1=
EXTT2=
EXTT3=
EXTT4=
EXTT5=
EXTT6=
EXTT7=
EXTT8=
EXTT9=
EXTT10=
EXTT11=
EXTT12=
EXTT13=
PLAYORDER=
